<mxfile host="Electron" agent="Mozilla/5.0 (Macintosh; Intel Mac OS X 10_15_7) AppleWebKit/537.36 (KHTML, like Gecko) draw.io/27.0.9 Chrome/134.0.6998.205 Electron/35.4.0 Safari/537.36" version="27.0.9">
  <diagram name="Seite-1" id="NrbdtOU8l5xmAe7ymhUr">
    <mxGraphModel dx="1411" dy="774" grid="1" gridSize="10" guides="1" tooltips="1" connect="1" arrows="1" fold="1" page="1" pageScale="1" pageWidth="827" pageHeight="1169" math="0" shadow="0">
      <root>
        <mxCell id="0" />
        <mxCell id="1" parent="0" />
        <mxCell id="73rr_FjuBhcJZTZMzzjQ-1" value="Service B" style="shape=cube;whiteSpace=wrap;html=1;boundedLbl=1;backgroundOutline=1;darkOpacity=0.05;darkOpacity2=0.1;labelPosition=center;verticalLabelPosition=top;align=center;verticalAlign=bottom;" parent="1" vertex="1">
          <mxGeometry x="370" y="740" width="260" height="200" as="geometry" />
        </mxCell>
        <mxCell id="7fS5oWLQzM0IxhjuAHD0-30" value="Kontext 4 (Generic)" style="rounded=0;whiteSpace=wrap;html=1;labelPosition=center;verticalLabelPosition=bottom;align=center;verticalAlign=top;strokeColor=light-dark(#000000,#0433FF);" parent="1" vertex="1">
          <mxGeometry x="130" y="520" width="280" height="120" as="geometry" />
        </mxCell>
        <mxCell id="7fS5oWLQzM0IxhjuAHD0-29" value="Kontext 3 (Supporting)" style="rounded=0;whiteSpace=wrap;html=1;labelPosition=center;verticalLabelPosition=bottom;align=center;verticalAlign=top;strokeColor=light-dark(#000000,#0433FF);" parent="1" vertex="1">
          <mxGeometry x="430" y="520" width="370" height="120" as="geometry" />
        </mxCell>
        <mxCell id="7fS5oWLQzM0IxhjuAHD0-28" value="Kontext 2 (Supporting)" style="rounded=0;whiteSpace=wrap;html=1;labelPosition=center;verticalLabelPosition=top;align=center;verticalAlign=bottom;strokeColor=light-dark(#000000,#0433FF);" parent="1" vertex="1">
          <mxGeometry x="430" y="375" width="200" height="130" as="geometry" />
        </mxCell>
        <mxCell id="eQGWegekin0o1_Gf9wDu-5" style="edgeStyle=orthogonalEdgeStyle;rounded=0;orthogonalLoop=1;jettySize=auto;html=1;exitX=1;exitY=0.5;exitDx=0;exitDy=0;entryX=0;entryY=0.5;entryDx=0;entryDy=0;" parent="1" source="eQGWegekin0o1_Gf9wDu-2" target="eQGWegekin0o1_Gf9wDu-3" edge="1">
          <mxGeometry relative="1" as="geometry" />
        </mxCell>
        <mxCell id="eQGWegekin0o1_Gf9wDu-2" value="Schritt 1" style="shape=document;whiteSpace=wrap;html=1;boundedLbl=1;fontSize=16;" parent="1" vertex="1">
          <mxGeometry x="50" y="80" width="120" height="80" as="geometry" />
        </mxCell>
        <mxCell id="73rr_FjuBhcJZTZMzzjQ-4" style="edgeStyle=orthogonalEdgeStyle;rounded=0;orthogonalLoop=1;jettySize=auto;html=1;exitX=1;exitY=0.25;exitDx=0;exitDy=0;entryX=0;entryY=0.25;entryDx=0;entryDy=0;" parent="1" source="eQGWegekin0o1_Gf9wDu-3" target="eQGWegekin0o1_Gf9wDu-4" edge="1">
          <mxGeometry relative="1" as="geometry" />
        </mxCell>
        <mxCell id="73rr_FjuBhcJZTZMzzjQ-6" style="edgeStyle=orthogonalEdgeStyle;rounded=0;orthogonalLoop=1;jettySize=auto;html=1;exitX=0;exitY=0.5;exitDx=0;exitDy=0;entryX=0;entryY=0.5;entryDx=0;entryDy=0;" parent="1" source="eQGWegekin0o1_Gf9wDu-4" target="73rr_FjuBhcJZTZMzzjQ-5" edge="1">
          <mxGeometry relative="1" as="geometry" />
        </mxCell>
        <mxCell id="7fS5oWLQzM0IxhjuAHD0-2" style="edgeStyle=orthogonalEdgeStyle;rounded=0;orthogonalLoop=1;jettySize=auto;html=1;exitX=1;exitY=0.5;exitDx=0;exitDy=0;entryX=1;entryY=0.5;entryDx=0;entryDy=0;" parent="1" source="eQGWegekin0o1_Gf9wDu-3" target="7fS5oWLQzM0IxhjuAHD0-1" edge="1">
          <mxGeometry relative="1" as="geometry" />
        </mxCell>
        <mxCell id="eQGWegekin0o1_Gf9wDu-3" value="Schritt 2" style="shape=document;whiteSpace=wrap;html=1;boundedLbl=1;fontSize=16;" parent="1" vertex="1">
          <mxGeometry x="240" y="80" width="120" height="80" as="geometry" />
        </mxCell>
        <mxCell id="eQGWegekin0o1_Gf9wDu-4" value="Schritt 3" style="shape=document;whiteSpace=wrap;html=1;boundedLbl=1;fontSize=16;" parent="1" vertex="1">
          <mxGeometry x="480" y="80" width="120" height="80" as="geometry" />
        </mxCell>
        <mxCell id="eQGWegekin0o1_Gf9wDu-13" value="Kontext 1 (Core)" style="rounded=0;whiteSpace=wrap;html=1;labelPosition=center;verticalLabelPosition=top;align=center;verticalAlign=bottom;strokeColor=light-dark(#000000,#0433FF);" parent="1" vertex="1">
          <mxGeometry x="20" y="375" width="390" height="130" as="geometry" />
        </mxCell>
        <mxCell id="eQGWegekin0o1_Gf9wDu-22" value="Service A" style="shape=cube;whiteSpace=wrap;html=1;boundedLbl=1;backgroundOutline=1;darkOpacity=0.05;darkOpacity2=0.1;labelPosition=center;verticalLabelPosition=top;align=center;verticalAlign=bottom;" parent="1" vertex="1">
          <mxGeometry x="50" y="740" width="260" height="110" as="geometry" />
        </mxCell>
        <mxCell id="eQGWegekin0o1_Gf9wDu-23" value="Kontext 1" style="rounded=0;whiteSpace=wrap;html=1;labelPosition=center;verticalLabelPosition=middle;align=center;verticalAlign=middle;strokeColor=light-dark(#000000,#0433FF);" parent="1" vertex="1">
          <mxGeometry x="100" y="780" width="180" height="50" as="geometry" />
        </mxCell>
        <mxCell id="eQGWegekin0o1_Gf9wDu-24" value="Modul / Kontext 3" style="rounded=0;whiteSpace=wrap;html=1;labelPosition=center;verticalLabelPosition=middle;align=center;verticalAlign=middle;strokeColor=light-dark(#000000,#0433FF);" parent="1" vertex="1">
          <mxGeometry x="420" y="860" width="180" height="50" as="geometry" />
        </mxCell>
        <mxCell id="73rr_FjuBhcJZTZMzzjQ-3" value="Modul / Kontext 2" style="rounded=0;whiteSpace=wrap;html=1;labelPosition=center;verticalLabelPosition=middle;align=center;verticalAlign=middle;strokeColor=light-dark(#000000,#0433FF);" parent="1" vertex="1">
          <mxGeometry x="420" y="790" width="180" height="50" as="geometry" />
        </mxCell>
        <mxCell id="7fS5oWLQzM0IxhjuAHD0-15" style="edgeStyle=orthogonalEdgeStyle;rounded=0;orthogonalLoop=1;jettySize=auto;html=1;exitX=1;exitY=0.5;exitDx=0;exitDy=0;entryX=0;entryY=0.5;entryDx=0;entryDy=0;" parent="1" source="73rr_FjuBhcJZTZMzzjQ-5" target="7fS5oWLQzM0IxhjuAHD0-14" edge="1">
          <mxGeometry relative="1" as="geometry" />
        </mxCell>
        <mxCell id="73rr_FjuBhcJZTZMzzjQ-5" value="Schritt 4" style="shape=document;whiteSpace=wrap;html=1;boundedLbl=1;fontSize=16;" parent="1" vertex="1">
          <mxGeometry x="480" y="220" width="120" height="80" as="geometry" />
        </mxCell>
        <mxCell id="73rr_FjuBhcJZTZMzzjQ-16" value="DB" style="strokeWidth=2;html=1;shape=mxgraph.flowchart.database;whiteSpace=wrap;labelPosition=center;verticalLabelPosition=bottom;align=center;verticalAlign=top;" parent="1" vertex="1">
          <mxGeometry x="490" y="1260" width="60" height="60" as="geometry" />
        </mxCell>
        <mxCell id="73rr_FjuBhcJZTZMzzjQ-21" value="" style="endArrow=none;dashed=1;html=1;dashPattern=1 3;strokeWidth=2;rounded=0;" parent="1" edge="1">
          <mxGeometry width="50" height="50" relative="1" as="geometry">
            <mxPoint x="20" y="40" as="sourcePoint" />
            <mxPoint x="800" y="40" as="targetPoint" />
          </mxGeometry>
        </mxCell>
        <mxCell id="7fS5oWLQzM0IxhjuAHD0-1" value="Schritt 6" style="shape=document;whiteSpace=wrap;html=1;boundedLbl=1;fontSize=16;" parent="1" vertex="1">
          <mxGeometry x="160" y="220" width="120" height="80" as="geometry" />
        </mxCell>
        <mxCell id="7fS5oWLQzM0IxhjuAHD0-14" value="Schritt 5" style="shape=document;whiteSpace=wrap;html=1;boundedLbl=1;fontSize=16;" parent="1" vertex="1">
          <mxGeometry x="650" y="220" width="120" height="80" as="geometry" />
        </mxCell>
        <mxCell id="7fS5oWLQzM0IxhjuAHD0-16" value="" style="endArrow=none;dashed=1;html=1;dashPattern=1 3;strokeWidth=2;rounded=0;" parent="1" edge="1">
          <mxGeometry width="50" height="50" relative="1" as="geometry">
            <mxPoint x="20" y="340" as="sourcePoint" />
            <mxPoint x="800" y="340" as="targetPoint" />
          </mxGeometry>
        </mxCell>
        <mxCell id="7fS5oWLQzM0IxhjuAHD0-17" style="edgeStyle=orthogonalEdgeStyle;rounded=0;orthogonalLoop=1;jettySize=auto;html=1;exitX=1;exitY=0.5;exitDx=0;exitDy=0;entryX=0;entryY=0.5;entryDx=0;entryDy=0;" parent="1" source="7fS5oWLQzM0IxhjuAHD0-18" target="7fS5oWLQzM0IxhjuAHD0-22" edge="1">
          <mxGeometry relative="1" as="geometry" />
        </mxCell>
        <mxCell id="7fS5oWLQzM0IxhjuAHD0-18" value="Schritt 1" style="shape=document;whiteSpace=wrap;html=1;boundedLbl=1;fontSize=16;" parent="1" vertex="1">
          <mxGeometry x="50" y="400" width="120" height="80" as="geometry" />
        </mxCell>
        <mxCell id="7fS5oWLQzM0IxhjuAHD0-19" style="edgeStyle=orthogonalEdgeStyle;rounded=0;orthogonalLoop=1;jettySize=auto;html=1;exitX=1;exitY=0.25;exitDx=0;exitDy=0;entryX=0;entryY=0.25;entryDx=0;entryDy=0;" parent="1" source="7fS5oWLQzM0IxhjuAHD0-22" target="7fS5oWLQzM0IxhjuAHD0-23" edge="1">
          <mxGeometry relative="1" as="geometry" />
        </mxCell>
        <mxCell id="wYqAE9kgNwy14ZpDtIfz-1" value="Supplier" style="edgeLabel;html=1;align=center;verticalAlign=middle;resizable=0;points=[];" parent="7fS5oWLQzM0IxhjuAHD0-19" vertex="1" connectable="0">
          <mxGeometry x="-0.6833" y="2" relative="1" as="geometry">
            <mxPoint x="11" y="-18" as="offset" />
          </mxGeometry>
        </mxCell>
        <mxCell id="wYqAE9kgNwy14ZpDtIfz-2" value="Customer" style="edgeLabel;html=1;align=center;verticalAlign=middle;resizable=0;points=[];" parent="7fS5oWLQzM0IxhjuAHD0-19" vertex="1" connectable="0">
          <mxGeometry x="0.4667" y="-2" relative="1" as="geometry">
            <mxPoint x="2" y="-22" as="offset" />
          </mxGeometry>
        </mxCell>
        <mxCell id="7fS5oWLQzM0IxhjuAHD0-21" style="edgeStyle=orthogonalEdgeStyle;rounded=0;orthogonalLoop=1;jettySize=auto;html=1;exitX=1;exitY=0.5;exitDx=0;exitDy=0;entryX=1;entryY=0.5;entryDx=0;entryDy=0;" parent="1" source="7fS5oWLQzM0IxhjuAHD0-22" target="7fS5oWLQzM0IxhjuAHD0-26" edge="1">
          <mxGeometry relative="1" as="geometry" />
        </mxCell>
        <mxCell id="wYqAE9kgNwy14ZpDtIfz-4" value="Open Host Service" style="edgeLabel;html=1;align=center;verticalAlign=middle;resizable=0;points=[];" parent="7fS5oWLQzM0IxhjuAHD0-21" vertex="1" connectable="0">
          <mxGeometry x="-0.0615" y="-2" relative="1" as="geometry">
            <mxPoint x="-18" y="-2" as="offset" />
          </mxGeometry>
        </mxCell>
        <mxCell id="7fS5oWLQzM0IxhjuAHD0-22" value="Schritt 2" style="shape=document;whiteSpace=wrap;html=1;boundedLbl=1;fontSize=16;" parent="1" vertex="1">
          <mxGeometry x="240" y="400" width="120" height="80" as="geometry" />
        </mxCell>
        <mxCell id="7fS5oWLQzM0IxhjuAHD0-72" style="edgeStyle=orthogonalEdgeStyle;rounded=0;orthogonalLoop=1;jettySize=auto;html=1;exitX=0;exitY=0.5;exitDx=0;exitDy=0;entryX=0;entryY=0.5;entryDx=0;entryDy=0;" parent="1" source="7fS5oWLQzM0IxhjuAHD0-23" target="7fS5oWLQzM0IxhjuAHD0-25" edge="1">
          <mxGeometry relative="1" as="geometry">
            <Array as="points">
              <mxPoint x="460" y="440" />
              <mxPoint x="460" y="580" />
            </Array>
          </mxGeometry>
        </mxCell>
        <mxCell id="wYqAE9kgNwy14ZpDtIfz-3" value="Conformist" style="edgeLabel;html=1;align=center;verticalAlign=middle;resizable=0;points=[];" parent="7fS5oWLQzM0IxhjuAHD0-72" vertex="1" connectable="0">
          <mxGeometry x="-0.2444" y="1" relative="1" as="geometry">
            <mxPoint x="-11" y="52" as="offset" />
          </mxGeometry>
        </mxCell>
        <mxCell id="7fS5oWLQzM0IxhjuAHD0-23" value="Schritt 3" style="shape=document;whiteSpace=wrap;html=1;boundedLbl=1;fontSize=16;" parent="1" vertex="1">
          <mxGeometry x="480" y="400" width="120" height="80" as="geometry" />
        </mxCell>
        <mxCell id="7fS5oWLQzM0IxhjuAHD0-24" style="edgeStyle=orthogonalEdgeStyle;rounded=0;orthogonalLoop=1;jettySize=auto;html=1;exitX=1;exitY=0.5;exitDx=0;exitDy=0;entryX=0;entryY=0.5;entryDx=0;entryDy=0;" parent="1" source="7fS5oWLQzM0IxhjuAHD0-25" target="7fS5oWLQzM0IxhjuAHD0-27" edge="1">
          <mxGeometry relative="1" as="geometry" />
        </mxCell>
        <mxCell id="7fS5oWLQzM0IxhjuAHD0-25" value="Schritt 4" style="shape=document;whiteSpace=wrap;html=1;boundedLbl=1;fontSize=16;" parent="1" vertex="1">
          <mxGeometry x="480" y="540" width="120" height="80" as="geometry" />
        </mxCell>
        <mxCell id="7fS5oWLQzM0IxhjuAHD0-26" value="Schritt 6" style="shape=document;whiteSpace=wrap;html=1;boundedLbl=1;fontSize=16;" parent="1" vertex="1">
          <mxGeometry x="160" y="540" width="120" height="80" as="geometry" />
        </mxCell>
        <mxCell id="7fS5oWLQzM0IxhjuAHD0-27" value="Schritt 5" style="shape=document;whiteSpace=wrap;html=1;boundedLbl=1;fontSize=16;" parent="1" vertex="1">
          <mxGeometry x="650" y="540" width="120" height="80" as="geometry" />
        </mxCell>
        <mxCell id="7fS5oWLQzM0IxhjuAHD0-31" value="" style="endArrow=none;dashed=1;html=1;dashPattern=1 3;strokeWidth=2;rounded=0;" parent="1" edge="1">
          <mxGeometry width="50" height="50" relative="1" as="geometry">
            <mxPoint x="20" y="690" as="sourcePoint" />
            <mxPoint x="800" y="690" as="targetPoint" />
          </mxGeometry>
        </mxCell>
        <mxCell id="7fS5oWLQzM0IxhjuAHD0-32" value="Service C" style="shape=cube;whiteSpace=wrap;html=1;boundedLbl=1;backgroundOutline=1;darkOpacity=0.05;darkOpacity2=0.1;labelPosition=center;verticalLabelPosition=top;align=center;verticalAlign=bottom;" parent="1" vertex="1">
          <mxGeometry x="50" y="890" width="260" height="110" as="geometry" />
        </mxCell>
        <mxCell id="7fS5oWLQzM0IxhjuAHD0-33" value="Kontext 4" style="rounded=0;whiteSpace=wrap;html=1;labelPosition=center;verticalLabelPosition=middle;align=center;verticalAlign=middle;strokeColor=light-dark(#000000,#0433FF);" parent="1" vertex="1">
          <mxGeometry x="100" y="930" width="180" height="50" as="geometry" />
        </mxCell>
        <mxCell id="7fS5oWLQzM0IxhjuAHD0-34" value="" style="endArrow=none;dashed=1;html=1;dashPattern=1 3;strokeWidth=2;rounded=0;" parent="1" edge="1">
          <mxGeometry width="50" height="50" relative="1" as="geometry">
            <mxPoint x="24" y="1040" as="sourcePoint" />
            <mxPoint x="804" y="1040" as="targetPoint" />
          </mxGeometry>
        </mxCell>
        <mxCell id="7fS5oWLQzM0IxhjuAHD0-37" value="Service A" style="shape=cube;whiteSpace=wrap;html=1;boundedLbl=1;backgroundOutline=1;darkOpacity=0.05;darkOpacity2=0.1;labelPosition=center;verticalLabelPosition=top;align=center;verticalAlign=bottom;" parent="1" vertex="1">
          <mxGeometry x="50" y="1090" width="260" height="110" as="geometry" />
        </mxCell>
        <mxCell id="7fS5oWLQzM0IxhjuAHD0-38" value="Service C" style="shape=cube;whiteSpace=wrap;html=1;boundedLbl=1;backgroundOutline=1;darkOpacity=0.05;darkOpacity2=0.1;labelPosition=center;verticalLabelPosition=bottom;align=center;verticalAlign=top;" parent="1" vertex="1">
          <mxGeometry x="70" y="1260" width="260" height="110" as="geometry" />
        </mxCell>
        <mxCell id="7fS5oWLQzM0IxhjuAHD0-40" style="edgeStyle=orthogonalEdgeStyle;rounded=0;orthogonalLoop=1;jettySize=auto;html=1;exitX=0;exitY=0;exitDx=140;exitDy=110;exitPerimeter=0;entryX=0;entryY=0;entryDx=120;entryDy=0;entryPerimeter=0;startArrow=classic;startFill=1;" parent="1" source="7fS5oWLQzM0IxhjuAHD0-37" target="7fS5oWLQzM0IxhjuAHD0-38" edge="1">
          <mxGeometry relative="1" as="geometry" />
        </mxCell>
        <mxCell id="7fS5oWLQzM0IxhjuAHD0-44" value="API" style="edgeLabel;html=1;align=center;verticalAlign=middle;resizable=0;points=[];" parent="7fS5oWLQzM0IxhjuAHD0-40" vertex="1" connectable="0">
          <mxGeometry x="-0.22" relative="1" as="geometry">
            <mxPoint y="7" as="offset" />
          </mxGeometry>
        </mxCell>
        <mxCell id="7fS5oWLQzM0IxhjuAHD0-41" value="Service B" style="shape=cube;whiteSpace=wrap;html=1;boundedLbl=1;backgroundOutline=1;darkOpacity=0.05;darkOpacity2=0.1;labelPosition=center;verticalLabelPosition=top;align=center;verticalAlign=bottom;" parent="1" vertex="1">
          <mxGeometry x="380" y="1110" width="260" height="110" as="geometry" />
        </mxCell>
        <mxCell id="7fS5oWLQzM0IxhjuAHD0-42" style="edgeStyle=orthogonalEdgeStyle;rounded=0;orthogonalLoop=1;jettySize=auto;html=1;exitX=0;exitY=0;exitDx=260;exitDy=65;exitPerimeter=0;entryX=0;entryY=0;entryDx=0;entryDy=45;entryPerimeter=0;startArrow=classic;startFill=1;" parent="1" source="7fS5oWLQzM0IxhjuAHD0-37" target="7fS5oWLQzM0IxhjuAHD0-41" edge="1">
          <mxGeometry relative="1" as="geometry" />
        </mxCell>
        <mxCell id="7fS5oWLQzM0IxhjuAHD0-43" value="API" style="edgeLabel;html=1;align=center;verticalAlign=middle;resizable=0;points=[];" parent="7fS5oWLQzM0IxhjuAHD0-42" vertex="1" connectable="0">
          <mxGeometry x="-0.0571" y="1" relative="1" as="geometry">
            <mxPoint as="offset" />
          </mxGeometry>
        </mxCell>
        <mxCell id="7fS5oWLQzM0IxhjuAHD0-45" value="" style="endArrow=none;dashed=1;html=1;dashPattern=1 3;strokeWidth=2;rounded=0;" parent="1" edge="1">
          <mxGeometry width="50" height="50" relative="1" as="geometry">
            <mxPoint x="20" y="1420" as="sourcePoint" />
            <mxPoint x="800" y="1420" as="targetPoint" />
          </mxGeometry>
        </mxCell>
        <mxCell id="7fS5oWLQzM0IxhjuAHD0-53" style="edgeStyle=orthogonalEdgeStyle;rounded=0;orthogonalLoop=1;jettySize=auto;html=1;exitX=0;exitY=0;exitDx=140;exitDy=110;exitPerimeter=0;entryX=0.5;entryY=0;entryDx=0;entryDy=0;entryPerimeter=0;startArrow=classic;startFill=1;" parent="1" source="7fS5oWLQzM0IxhjuAHD0-41" target="73rr_FjuBhcJZTZMzzjQ-16" edge="1">
          <mxGeometry relative="1" as="geometry" />
        </mxCell>
        <mxCell id="7fS5oWLQzM0IxhjuAHD0-64" value="&lt;div&gt;Schritt 1:&lt;/div&gt;&lt;div&gt;&lt;br&gt;&lt;/div&gt;Anforderungen sammeln und visualisieren" style="rounded=0;whiteSpace=wrap;html=1;strokeColor=#FF0000;" parent="1" vertex="1">
          <mxGeometry x="680" y="60" width="120" height="90" as="geometry" />
        </mxCell>
        <mxCell id="7fS5oWLQzM0IxhjuAHD0-65" value="&lt;div&gt;Schritt 2:&lt;/div&gt;&lt;div&gt;&lt;br&gt;&lt;/div&gt;Kontext-Übersicht erstellen" style="rounded=0;whiteSpace=wrap;html=1;strokeColor=#FF0000;" parent="1" vertex="1">
          <mxGeometry x="680" y="360" width="120" height="80" as="geometry" />
        </mxCell>
        <mxCell id="7fS5oWLQzM0IxhjuAHD0-66" value="Schritt 3:&lt;div&gt;&lt;br&gt;&lt;div&gt;Services/Module&lt;div&gt;festlegen&lt;/div&gt;&lt;/div&gt;&lt;/div&gt;" style="rounded=0;whiteSpace=wrap;html=1;strokeColor=#FF0000;" parent="1" vertex="1">
          <mxGeometry x="680" y="710" width="120" height="80" as="geometry" />
        </mxCell>
        <mxCell id="7fS5oWLQzM0IxhjuAHD0-67" value="&lt;div&gt;Schritt 4:&lt;/div&gt;&lt;div&gt;&lt;br&gt;&lt;/div&gt;&lt;span style=&quot;background-color: transparent; color: light-dark(rgb(0, 0, 0), rgb(255, 255, 255));&quot;&gt;Verteilte Prozesse abbilden&amp;nbsp;&lt;/span&gt;&lt;span style=&quot;background-color: transparent; color: light-dark(rgb(0, 0, 0), rgb(255, 255, 255));&quot;&gt;und&lt;/span&gt;&lt;div&gt;&lt;div&gt;Datenfluss planen&lt;/div&gt;&lt;/div&gt;" style="rounded=0;whiteSpace=wrap;html=1;strokeColor=#FF0000;" parent="1" vertex="1">
          <mxGeometry x="680" y="1060" width="120" height="100" as="geometry" />
        </mxCell>
        <mxCell id="7fS5oWLQzM0IxhjuAHD0-70" style="edgeStyle=orthogonalEdgeStyle;rounded=0;orthogonalLoop=1;jettySize=auto;html=1;exitX=1;exitY=0.5;exitDx=0;exitDy=0;entryX=0;entryY=0.5;entryDx=0;entryDy=0;startArrow=classic;startFill=1;" parent="1" source="7fS5oWLQzM0IxhjuAHD0-68" target="7fS5oWLQzM0IxhjuAHD0-69" edge="1">
          <mxGeometry relative="1" as="geometry" />
        </mxCell>
        <mxCell id="7fS5oWLQzM0IxhjuAHD0-71" value="API" style="edgeLabel;html=1;align=center;verticalAlign=middle;resizable=0;points=[];" parent="7fS5oWLQzM0IxhjuAHD0-70" vertex="1" connectable="0">
          <mxGeometry x="-0.075" y="-3" relative="1" as="geometry">
            <mxPoint x="3" y="-3" as="offset" />
          </mxGeometry>
        </mxCell>
        <mxCell id="7fS5oWLQzM0IxhjuAHD0-68" value="" style="rounded=0;whiteSpace=wrap;html=1;labelPosition=center;verticalLabelPosition=middle;align=center;verticalAlign=middle;strokeColor=light-dark(#000000,#0433FF);" parent="1" vertex="1">
          <mxGeometry x="420" y="1150" width="60" height="50" as="geometry" />
        </mxCell>
        <mxCell id="7fS5oWLQzM0IxhjuAHD0-69" value="" style="rounded=0;whiteSpace=wrap;html=1;labelPosition=center;verticalLabelPosition=middle;align=center;verticalAlign=middle;strokeColor=light-dark(#000000,#0433FF);" parent="1" vertex="1">
          <mxGeometry x="560" y="1150" width="60" height="50" as="geometry" />
        </mxCell>
        <mxCell id="7fS5oWLQzM0IxhjuAHD0-73" value="&lt;div&gt;Schritt 5:&lt;/div&gt;&lt;div&gt;&lt;br&gt;&lt;/div&gt;Service aufbauen" style="rounded=0;whiteSpace=wrap;html=1;strokeColor=#FF0000;" parent="1" vertex="1">
          <mxGeometry x="680" y="1440" width="120" height="70" as="geometry" />
        </mxCell>
        <mxCell id="7fS5oWLQzM0IxhjuAHD0-74" value="DB" style="strokeWidth=2;html=1;shape=mxgraph.flowchart.database;whiteSpace=wrap;labelPosition=center;verticalLabelPosition=bottom;align=center;verticalAlign=top;" parent="1" vertex="1">
          <mxGeometry x="390" y="1310" width="60" height="60" as="geometry" />
        </mxCell>
        <mxCell id="7fS5oWLQzM0IxhjuAHD0-75" style="edgeStyle=orthogonalEdgeStyle;rounded=0;orthogonalLoop=1;jettySize=auto;html=1;exitX=0;exitY=0;exitDx=260;exitDy=65;exitPerimeter=0;entryX=0;entryY=0.5;entryDx=0;entryDy=0;entryPerimeter=0;startArrow=classic;startFill=1;" parent="1" source="7fS5oWLQzM0IxhjuAHD0-38" target="7fS5oWLQzM0IxhjuAHD0-74" edge="1">
          <mxGeometry relative="1" as="geometry" />
        </mxCell>
        <mxCell id="cEz75fUxXxjzGTPu2LYk-1" value="Aggregate" style="rounded=0;whiteSpace=wrap;html=1;labelPosition=center;verticalLabelPosition=top;align=center;verticalAlign=bottom;" parent="1" vertex="1">
          <mxGeometry x="530" y="1820" width="254" height="130" as="geometry" />
        </mxCell>
        <mxCell id="cEz75fUxXxjzGTPu2LYk-2" value="Service" style="shape=cube;whiteSpace=wrap;html=1;boundedLbl=1;backgroundOutline=1;darkOpacity=0.05;darkOpacity2=0.1;labelPosition=center;verticalLabelPosition=top;align=center;verticalAlign=bottom;" parent="1" vertex="1">
          <mxGeometry x="154" y="1470" width="470" height="310" as="geometry" />
        </mxCell>
        <mxCell id="cEz75fUxXxjzGTPu2LYk-3" value="" style="shape=hexagon;perimeter=hexagonPerimeter2;whiteSpace=wrap;html=1;fixedSize=1;" parent="1" vertex="1">
          <mxGeometry x="314.5" y="1585" width="209.5" height="90" as="geometry" />
        </mxCell>
        <mxCell id="cEz75fUxXxjzGTPu2LYk-4" value="API (in)" style="rounded=0;whiteSpace=wrap;html=1;labelPosition=center;verticalLabelPosition=middle;align=center;verticalAlign=middle;strokeColor=light-dark(#000000,#FF8000);" parent="1" vertex="1">
          <mxGeometry x="222" y="1515" width="72" height="35" as="geometry" />
        </mxCell>
        <mxCell id="cEz75fUxXxjzGTPu2LYk-5" value="API (out)" style="rounded=0;whiteSpace=wrap;html=1;labelPosition=center;verticalLabelPosition=middle;align=center;verticalAlign=middle;strokeColor=light-dark(#000000,#FF8000);" parent="1" vertex="1">
          <mxGeometry x="502" y="1515" width="92" height="35" as="geometry" />
        </mxCell>
        <mxCell id="cEz75fUxXxjzGTPu2LYk-6" style="edgeStyle=orthogonalEdgeStyle;rounded=0;orthogonalLoop=1;jettySize=auto;html=1;exitX=1;exitY=0.5;exitDx=0;exitDy=0;entryX=0;entryY=0.5;entryDx=0;entryDy=0;endArrow=none;startFill=0;" parent="1" source="cEz75fUxXxjzGTPu2LYk-7" target="cEz75fUxXxjzGTPu2LYk-18" edge="1">
          <mxGeometry relative="1" as="geometry" />
        </mxCell>
        <mxCell id="cEz75fUxXxjzGTPu2LYk-7" value="Business" style="rounded=0;whiteSpace=wrap;html=1;labelPosition=center;verticalLabelPosition=middle;align=center;verticalAlign=middle;strokeColor=light-dark(#000000,#009900);" parent="1" vertex="1">
          <mxGeometry x="352" y="1605" width="92" height="50" as="geometry" />
        </mxCell>
        <mxCell id="cEz75fUxXxjzGTPu2LYk-8" style="edgeStyle=orthogonalEdgeStyle;rounded=0;orthogonalLoop=1;jettySize=auto;html=1;exitX=0.5;exitY=1;exitDx=0;exitDy=0;entryX=0.25;entryY=0;entryDx=0;entryDy=0;endArrow=none;startFill=0;dashed=1;" parent="1" source="cEz75fUxXxjzGTPu2LYk-9" target="cEz75fUxXxjzGTPu2LYk-29" edge="1">
          <mxGeometry relative="1" as="geometry">
            <Array as="points">
              <mxPoint x="569" y="1845" />
            </Array>
          </mxGeometry>
        </mxCell>
        <mxCell id="cEz75fUxXxjzGTPu2LYk-9" value="DB" style="rounded=0;whiteSpace=wrap;html=1;labelPosition=center;verticalLabelPosition=middle;align=center;verticalAlign=middle;strokeColor=light-dark(#000000,#FF8000);" parent="1" vertex="1">
          <mxGeometry x="544" y="1700" width="50" height="30" as="geometry" />
        </mxCell>
        <mxCell id="cEz75fUxXxjzGTPu2LYk-10" value="Service" style="shape=cube;whiteSpace=wrap;html=1;boundedLbl=1;backgroundOutline=1;darkOpacity=0.05;darkOpacity2=0.1;labelPosition=center;verticalLabelPosition=top;align=center;verticalAlign=bottom;" parent="1" vertex="1">
          <mxGeometry x="680" y="1585" width="90" height="65" as="geometry" />
        </mxCell>
        <mxCell id="cEz75fUxXxjzGTPu2LYk-11" value="DB" style="strokeWidth=2;html=1;shape=mxgraph.flowchart.database;whiteSpace=wrap;labelPosition=center;verticalLabelPosition=bottom;align=center;verticalAlign=top;" parent="1" vertex="1">
          <mxGeometry x="695" y="1685" width="60" height="60" as="geometry" />
        </mxCell>
        <mxCell id="cEz75fUxXxjzGTPu2LYk-12" style="edgeStyle=orthogonalEdgeStyle;rounded=0;orthogonalLoop=1;jettySize=auto;html=1;exitX=1;exitY=0.5;exitDx=0;exitDy=0;entryX=0;entryY=0.5;entryDx=0;entryDy=0;entryPerimeter=0;" parent="1" source="cEz75fUxXxjzGTPu2LYk-9" target="cEz75fUxXxjzGTPu2LYk-11" edge="1">
          <mxGeometry relative="1" as="geometry" />
        </mxCell>
        <mxCell id="cEz75fUxXxjzGTPu2LYk-13" style="edgeStyle=orthogonalEdgeStyle;rounded=0;orthogonalLoop=1;jettySize=auto;html=1;exitX=1;exitY=0.5;exitDx=0;exitDy=0;entryX=0;entryY=0;entryDx=0;entryDy=22.5;entryPerimeter=0;" parent="1" source="cEz75fUxXxjzGTPu2LYk-5" target="cEz75fUxXxjzGTPu2LYk-10" edge="1">
          <mxGeometry relative="1" as="geometry">
            <Array as="points">
              <mxPoint x="650" y="1533" />
              <mxPoint x="650" y="1608" />
            </Array>
          </mxGeometry>
        </mxCell>
        <mxCell id="cEz75fUxXxjzGTPu2LYk-14" style="edgeStyle=orthogonalEdgeStyle;rounded=0;orthogonalLoop=1;jettySize=auto;html=1;exitX=0;exitY=0;exitDx=90;exitDy=45;exitPerimeter=0;entryX=0;entryY=0.5;entryDx=0;entryDy=0;" parent="1" source="cEz75fUxXxjzGTPu2LYk-15" target="cEz75fUxXxjzGTPu2LYk-4" edge="1">
          <mxGeometry relative="1" as="geometry">
            <Array as="points">
              <mxPoint x="194" y="1515" />
              <mxPoint x="194" y="1533" />
            </Array>
          </mxGeometry>
        </mxCell>
        <mxCell id="cEz75fUxXxjzGTPu2LYk-15" value="Service" style="shape=cube;whiteSpace=wrap;html=1;boundedLbl=1;backgroundOutline=1;darkOpacity=0.05;darkOpacity2=0.1;labelPosition=center;verticalLabelPosition=top;align=center;verticalAlign=bottom;" parent="1" vertex="1">
          <mxGeometry x="39" y="1470" width="90" height="65" as="geometry" />
        </mxCell>
        <mxCell id="cEz75fUxXxjzGTPu2LYk-16" style="edgeStyle=orthogonalEdgeStyle;rounded=0;orthogonalLoop=1;jettySize=auto;html=1;exitX=1;exitY=0.75;exitDx=0;exitDy=0;entryX=0.5;entryY=0;entryDx=0;entryDy=0;" parent="1" source="cEz75fUxXxjzGTPu2LYk-18" target="cEz75fUxXxjzGTPu2LYk-9" edge="1">
          <mxGeometry relative="1" as="geometry" />
        </mxCell>
        <mxCell id="cEz75fUxXxjzGTPu2LYk-17" style="edgeStyle=orthogonalEdgeStyle;rounded=0;orthogonalLoop=1;jettySize=auto;html=1;exitX=1;exitY=0.25;exitDx=0;exitDy=0;" parent="1" source="cEz75fUxXxjzGTPu2LYk-18" target="cEz75fUxXxjzGTPu2LYk-22" edge="1">
          <mxGeometry relative="1" as="geometry" />
        </mxCell>
        <mxCell id="cEz75fUxXxjzGTPu2LYk-18" value="Inter-&lt;div&gt;faces&lt;/div&gt;" style="rounded=0;whiteSpace=wrap;html=1;labelPosition=center;verticalLabelPosition=middle;align=center;verticalAlign=middle;strokeColor=light-dark(#000000,#009900);" parent="1" vertex="1">
          <mxGeometry x="454" y="1605" width="40" height="50" as="geometry" />
        </mxCell>
        <mxCell id="cEz75fUxXxjzGTPu2LYk-19" value="Spring" style="rounded=0;whiteSpace=wrap;html=1;labelPosition=center;verticalLabelPosition=middle;align=center;verticalAlign=middle;strokeColor=light-dark(#000000,#FF8000);" parent="1" vertex="1">
          <mxGeometry x="190" y="1745" width="50" height="20" as="geometry" />
        </mxCell>
        <mxCell id="cEz75fUxXxjzGTPu2LYk-20" value="Java" style="rounded=0;whiteSpace=wrap;html=1;labelPosition=center;verticalLabelPosition=middle;align=center;verticalAlign=middle;strokeColor=light-dark(#000000,#009900);" parent="1" vertex="1">
          <mxGeometry x="190" y="1715" width="50" height="20" as="geometry" />
        </mxCell>
        <mxCell id="cEz75fUxXxjzGTPu2LYk-21" value="Domänen-Modell" style="shape=document;whiteSpace=wrap;html=1;boundedLbl=1;strokeColor=light-dark(#000000,#009900);fillStyle=hatch;fillColor=#4D4D4D;" parent="1" vertex="1">
          <mxGeometry x="352" y="1700" width="90" height="60" as="geometry" />
        </mxCell>
        <mxCell id="cEz75fUxXxjzGTPu2LYk-22" value="&amp;nbsp;&lt;span style=&quot;background-color: transparent; color: light-dark(rgb(0, 0, 0), rgb(255, 255, 255));&quot;&gt;ACL&lt;/span&gt;" style="rounded=0;whiteSpace=wrap;html=1;labelPosition=center;verticalLabelPosition=middle;align=center;verticalAlign=middle;strokeColor=light-dark(#000000,#FF8000);dashed=1;" parent="1" vertex="1">
          <mxGeometry x="544" y="1550" width="50" height="25" as="geometry" />
        </mxCell>
        <mxCell id="cEz75fUxXxjzGTPu2LYk-23" style="edgeStyle=orthogonalEdgeStyle;rounded=0;orthogonalLoop=1;jettySize=auto;html=1;exitX=0.5;exitY=1;exitDx=0;exitDy=0;entryX=0;entryY=0.25;entryDx=0;entryDy=0;" parent="1" source="cEz75fUxXxjzGTPu2LYk-24" target="cEz75fUxXxjzGTPu2LYk-7" edge="1">
          <mxGeometry relative="1" as="geometry" />
        </mxCell>
        <mxCell id="cEz75fUxXxjzGTPu2LYk-24" value="&amp;nbsp;&lt;span style=&quot;background-color: transparent; color: light-dark(rgb(0, 0, 0), rgb(255, 255, 255));&quot;&gt;ACL&lt;/span&gt;" style="rounded=0;whiteSpace=wrap;html=1;labelPosition=center;verticalLabelPosition=middle;align=center;verticalAlign=middle;strokeColor=light-dark(#000000,#FF8000);dashed=1;" parent="1" vertex="1">
          <mxGeometry x="244" y="1550" width="50" height="25" as="geometry" />
        </mxCell>
        <mxCell id="cEz75fUxXxjzGTPu2LYk-25" value="DTO" style="shape=document;whiteSpace=wrap;html=1;boundedLbl=1;strokeColor=light-dark(#000000,#009900);fillStyle=hatch;fillColor=#4D4D4D;" parent="1" vertex="1">
          <mxGeometry x="352" y="1515" width="90" height="45" as="geometry" />
        </mxCell>
        <mxCell id="cEz75fUxXxjzGTPu2LYk-26" value="DB-&lt;div&gt;Modell&lt;/div&gt;" style="shape=document;whiteSpace=wrap;html=1;boundedLbl=1;strokeColor=light-dark(#000000,#FF8000);fillStyle=hatch;fillColor=#4D4D4D;" parent="1" vertex="1">
          <mxGeometry x="454" y="1700" width="70" height="60" as="geometry" />
        </mxCell>
        <mxCell id="cEz75fUxXxjzGTPu2LYk-27" value="Value&lt;div&gt;&amp;nbsp;Object&lt;/div&gt;" style="shape=internalStorage;whiteSpace=wrap;html=1;backgroundOutline=1;" parent="1" vertex="1">
          <mxGeometry x="680" y="1845" width="80" height="80" as="geometry" />
        </mxCell>
        <mxCell id="cEz75fUxXxjzGTPu2LYk-28" style="edgeStyle=orthogonalEdgeStyle;rounded=0;orthogonalLoop=1;jettySize=auto;html=1;exitX=1;exitY=0.5;exitDx=0;exitDy=0;entryX=0;entryY=0.5;entryDx=0;entryDy=0;" parent="1" source="cEz75fUxXxjzGTPu2LYk-29" target="cEz75fUxXxjzGTPu2LYk-27" edge="1">
          <mxGeometry relative="1" as="geometry" />
        </mxCell>
        <mxCell id="cEz75fUxXxjzGTPu2LYk-29" value="&lt;div&gt;Root-&lt;/div&gt;&lt;div&gt;Entity&lt;/div&gt;" style="shape=internalStorage;whiteSpace=wrap;html=1;backgroundOutline=1;" parent="1" vertex="1">
          <mxGeometry x="560" y="1845" width="90" height="80" as="geometry" />
        </mxCell>
        <mxCell id="cEz75fUxXxjzGTPu2LYk-30" value="Service" style="shape=cube;whiteSpace=wrap;html=1;boundedLbl=1;backgroundOutline=1;darkOpacity=0.05;darkOpacity2=0.1;labelPosition=center;verticalLabelPosition=top;align=center;verticalAlign=bottom;" parent="1" vertex="1">
          <mxGeometry x="34" y="1820" width="436" height="130" as="geometry" />
        </mxCell>
        <mxCell id="cEz75fUxXxjzGTPu2LYk-31" value="Feature&amp;nbsp;&lt;span style=&quot;background-color: transparent; color: light-dark(rgb(0, 0, 0), rgb(255, 255, 255));&quot;&gt;B&lt;/span&gt;" style="rounded=0;whiteSpace=wrap;html=1;labelPosition=center;verticalLabelPosition=top;align=center;verticalAlign=bottom;strokeColor=light-dark(#000000,#009900);" parent="1" vertex="1">
          <mxGeometry x="213" y="1870" width="90" height="60" as="geometry" />
        </mxCell>
        <mxCell id="cEz75fUxXxjzGTPu2LYk-32" value="" style="shape=hexagon;perimeter=hexagonPerimeter2;whiteSpace=wrap;html=1;fixedSize=1;" parent="1" vertex="1">
          <mxGeometry x="228" y="1880" width="60" height="40" as="geometry" />
        </mxCell>
        <mxCell id="cEz75fUxXxjzGTPu2LYk-33" value="Feature A" style="rounded=0;whiteSpace=wrap;html=1;labelPosition=center;verticalLabelPosition=top;align=center;verticalAlign=bottom;strokeColor=light-dark(#000000,#009900);" parent="1" vertex="1">
          <mxGeometry x="90" y="1870" width="90" height="60" as="geometry" />
        </mxCell>
        <mxCell id="cEz75fUxXxjzGTPu2LYk-34" value="" style="shape=hexagon;perimeter=hexagonPerimeter2;whiteSpace=wrap;html=1;fixedSize=1;" parent="1" vertex="1">
          <mxGeometry x="105" y="1880" width="60" height="40" as="geometry" />
        </mxCell>
        <mxCell id="cEz75fUxXxjzGTPu2LYk-35" value="Feature C" style="rounded=0;whiteSpace=wrap;html=1;labelPosition=center;verticalLabelPosition=top;align=center;verticalAlign=bottom;strokeColor=light-dark(#000000,#009900);" parent="1" vertex="1">
          <mxGeometry x="340" y="1870" width="90" height="60" as="geometry" />
        </mxCell>
        <mxCell id="cEz75fUxXxjzGTPu2LYk-36" value="" style="shape=hexagon;perimeter=hexagonPerimeter2;whiteSpace=wrap;html=1;fixedSize=1;" parent="1" vertex="1">
          <mxGeometry x="355" y="1880" width="60" height="40" as="geometry" />
        </mxCell>
        <mxCell id="cEz75fUxXxjzGTPu2LYk-37" value="" style="endArrow=none;dashed=1;html=1;dashPattern=1 3;strokeWidth=2;rounded=0;" parent="1" edge="1">
          <mxGeometry width="50" height="50" relative="1" as="geometry">
            <mxPoint x="20" y="1990" as="sourcePoint" />
            <mxPoint x="800" y="1990" as="targetPoint" />
          </mxGeometry>
        </mxCell>
        <mxCell id="IrhoCygINPT1jZf2iXR--1" value="Java Packages" style="rounded=0;whiteSpace=wrap;html=1;labelPosition=center;verticalLabelPosition=top;align=center;verticalAlign=bottom;" parent="1" vertex="1">
          <mxGeometry x="34" y="1590" width="100" height="190" as="geometry" />
        </mxCell>
        <mxCell id="IrhoCygINPT1jZf2iXR--2" value="domain" style="rounded=0;whiteSpace=wrap;html=1;labelPosition=center;verticalLabelPosition=top;align=center;verticalAlign=bottom;strokeColor=light-dark(#000000,#009900);" parent="1" vertex="1">
          <mxGeometry x="49" y="1620" width="70" height="60" as="geometry" />
        </mxCell>
        <mxCell id="IrhoCygINPT1jZf2iXR--3" value="infra" style="rounded=0;whiteSpace=wrap;html=1;labelPosition=center;verticalLabelPosition=top;align=center;verticalAlign=bottom;strokeColor=light-dark(#000000,#FF8000);" parent="1" vertex="1">
          <mxGeometry x="50" y="1710" width="70" height="55" as="geometry" />
        </mxCell>
        <mxCell id="IrhoCygINPT1jZf2iXR--5" value="model&lt;div&gt;services&lt;br&gt;ports&lt;/div&gt;" style="rounded=0;whiteSpace=wrap;html=1;labelPosition=center;verticalLabelPosition=middle;align=center;verticalAlign=middle;strokeColor=none;" parent="1" vertex="1">
          <mxGeometry x="54" y="1627.5" width="60" height="45" as="geometry" />
        </mxCell>
        <mxCell id="IrhoCygINPT1jZf2iXR--6" value="adapter&lt;div&gt;config&lt;/div&gt;" style="rounded=0;whiteSpace=wrap;html=1;labelPosition=center;verticalLabelPosition=middle;align=center;verticalAlign=middle;strokeColor=none;" parent="1" vertex="1">
          <mxGeometry x="55" y="1720" width="60" height="30" as="geometry" />
        </mxCell>
      </root>
    </mxGraphModel>
  </diagram>
</mxfile>
